<?xml version="1.0" encoding="utf-8"?>
<!-- Generator: Adobe Illustrator 24.3.0, SVG Export Plug-In . SVG Version: 6.00 Build 0)  -->
<svg version="1.1" id="Layer_1" xmlns="http://www.w3.org/2000/svg" xmlns:xlink="http://www.w3.org/1999/xlink" x="0px" y="0px"
	 viewBox="0 0 150 150" style="enable-background:new 0 0 150 150;" xml:space="preserve">
<style type="text/css">
	.st0{fill:#FFFFFF;stroke:#FFFFFF;stroke-miterlimit:10;}
</style>
<path class="st0" d="M128.62,26.44H21.38c-2.73,0-4.94-2.21-4.94-4.94v0c0-2.73,2.21-4.94,4.94-4.94h107.24
	c2.73,0,4.94,2.21,4.94,4.94v0C133.56,24.22,131.35,26.44,128.62,26.44z"/>
<path class="st0" d="M128.62,79.94H21.38c-2.73,0-4.94-2.21-4.94-4.94v0c0-2.73,2.21-4.94,4.94-4.94h107.24
	c2.73,0,4.94,2.21,4.94,4.94v0C133.56,77.73,131.35,79.94,128.62,79.94z"/>
<path class="st0" d="M128.62,133.44H21.38c-2.73,0-4.94-2.21-4.94-4.94l0,0c0-2.73,2.21-4.94,4.94-4.94h107.24
	c2.73,0,4.94,2.21,4.94,4.94l0,0C133.56,131.23,131.35,133.44,128.62,133.44z"/>
</svg>
